<?xml version="1.0" encoding="UTF-8" standalone="no"?>
<!DOCTYPE svg PUBLIC "-//W3C//DTD SVG 1.1//EN" "http://www.w3.org/Graphics/SVG/1.1/DTD/svg11.dtd">
<svg width="100%" height="100%" viewBox="0 0 300 233" version="1.1" xmlns="http://www.w3.org/2000/svg" xmlns:xlink="http://www.w3.org/1999/xlink" xml:space="preserve" xmlns:serif="http://www.serif.com/" style="fill-rule:evenodd;clip-rule:evenodd;stroke-linejoin:round;stroke-miterlimit:2;">
    <g transform="matrix(0.477115,0,0,0.477115,-0.477226,-0.477136)">
        <path d="M136.402,23.111L135.399,23.111C134.208,20.8 133.112,18.371 131.752,16.153C122.86,1.657 109.001,31.774 100.274,34.767C90.223,38.214 80.551,38.882 71.171,44.575C61.97,50.16 56.349,58.509 49.054,66.111C40.714,74.801 31.527,82.601 23.001,91.111C14.915,99.181 0.071,113.504 1.046,126.111C1.369,130.282 3.981,133.676 6.134,137.111C10.506,144.087 16.187,150.501 25.008,151.003C39.194,151.811 63.791,139.989 74.48,155.154C79.236,161.902 78.758,174.997 81.066,183.111C92.513,223.356 84.462,265.772 105.605,304.111C110.649,313.258 118.709,327.499 128.375,332.195C147.492,341.484 177.941,339.639 188.667,362.112C191.811,368.699 190.594,377.02 190.594,384.111C190.594,402.391 191.93,427.051 184.463,444.111C180.63,452.87 159.051,467.616 171.384,480.369C182.863,492.238 192.062,467.492 196.725,463.529C199.985,460.758 204.225,460 206.511,456.067C209.698,450.582 209.075,442.272 209.817,436.111C211.549,421.738 213.695,407.388 216.098,393.111C217.389,385.441 217.307,369.191 228.729,370.34C244.279,371.905 242.775,386.456 242.779,398.111C242.789,415.555 248.365,438.413 241.961,455.111C240.136,459.873 236.351,462.373 233.398,466.281C230.329,470.341 228.35,485.896 234.899,487.792C248.444,491.714 250.855,477.117 257.058,470.204C259.969,466.959 264.273,465.146 266.209,461.071C269.24,454.694 267.868,445.962 267.868,439.111C267.868,424.43 267.375,409.689 269.297,395.111C270.622,385.068 268.085,370.845 279.91,366.593C299.796,359.444 330.869,349.437 352.166,352.881C368.04,355.448 381.605,369.083 398.33,369.111C413.272,369.136 446.85,360.383 452.772,378.111C459.14,397.168 450.253,427.322 438.684,443.096C434.916,448.233 428.707,450.873 425.128,456.126C422.022,460.683 417.789,477.141 424.571,480.079C438.529,486.125 441.779,469.65 449.555,463.541C452.902,460.912 457.258,460.465 460.038,457.002C466.591,448.838 467.529,433.792 471.896,424.111C477.26,412.219 485.094,400.958 487.982,388.111C490.897,375.141 484.414,358.15 495.768,348.501C507.529,338.507 525.337,344.498 535.817,353.412C556.878,371.328 564.493,395.616 560.149,422.111C558.368,432.97 553.469,444.55 546.336,453.068C543.223,456.785 538.651,458.142 535.344,461.501C528.486,468.468 528.129,479.168 529.795,488.111C536.883,488.111 544.375,489.022 549.447,483.006C551.888,480.11 552.625,476.203 555.279,473.451C559.253,469.331 565.73,469.66 569.233,465.002C578.374,452.844 581.168,429.623 585.711,415.111C589.322,403.576 594.512,392.499 593.983,380.111C593.703,373.576 591.757,366.875 588.681,361.111C586.767,357.526 582.797,353.413 582.949,349.111C583.414,336.019 608.008,332.597 611.915,319.111C617.784,298.857 619.951,278.672 623.932,258.111C626.928,242.635 631.935,223.897 628.767,208.111C625.385,191.256 614.906,181.663 606.031,168.111C597.32,154.808 588.301,141.489 579.67,128.111C575.061,120.968 571.886,113.344 565.833,107.151C547.178,88.067 528.347,87.319 503.703,85.036C481.372,82.967 459.829,84.111 437.468,84.111C416.523,84.111 395.052,82.917 374.244,85.397C359.233,87.186 344.263,96.313 329.085,94.94C316.67,93.818 305.298,88.511 292.957,87.282C283.078,86.297 273.366,89.895 263.854,86.017C248.946,79.939 237.66,67.103 223.711,59.423C213.69,53.907 198.691,46.99 187.584,44.629C181.029,43.235 174.16,44.341 167.512,43.111C173.43,32.739 175.138,21.291 170.504,10.111C169.279,7.154 167.15,1.512 163.405,1.032C160.235,0.626 157.503,4.187 155.47,6.075C149.145,11.95 141.467,15.966 136.402,23.111Z" style="fill-rule:nonzero;"/>
    </g>
</svg>
